<svg id="visual" viewBox="0 0 1920 1080" width="1920" height="1080" xmlns="http://www.w3.org/2000/svg" xmlns:xlink="http://www.w3.org/1999/xlink" version="1.1"><rect x="0" y="0" width="1920" height="1080" fill="#191919"></rect><path d="M0 713L64 744C128 775 256 837 384 866.3C512 895.7 640 892.3 768 873.3C896 854.3 1024 819.7 1152 807.2C1280 794.7 1408 804.3 1536 801C1664 797.7 1792 781.3 1856 773.2L1920 765L1920 1081L1856 1081C1792 1081 1664 1081 1536 1081C1408 1081 1280 1081 1152 1081C1024 1081 896 1081 768 1081C640 1081 512 1081 384 1081C256 1081 128 1081 64 1081L0 1081Z" fill="#0066FF" stroke-linecap="round" stroke-linejoin="miter"></path></svg>